<svg xmlns="http://www.w3.org/2000/svg" width="592" height="196" viewBox="0 0 592 196">
	<path fill="none" stroke="#fff" stroke-width="2" stroke-miterlimit="3" stroke-linecap="square" clip-rule="evenodd" d="M338 187.05c.367 1 .95 1.917 1.75 2.75 1.467 1.467 3.25 2.2 5.35 2.2 2.067 0 3.834-.733 5.3-2.2.8-.833 1.384-1.75 1.75-2.75L338 172.9c.367-1 .95-1.917 1.75-2.75 1.467-1.434 3.25-2.15 5.35-2.15 2.067 0 3.834.717 5.3 2.15.8.833 1.384 1.75 1.75 2.75M2.3 109.7c1.934 5.366 5.067 10.233 9.4 14.6C19.533 132.1 28.967 136 40 136s20.467-3.9 28.3-11.7c4.333-4.366 7.467-9.233 9.4-14.6L2.3 34.3c1.934-5.367 5.067-10.233 9.4-14.6C19.533 11.9 28.967 8 40 8s20.467 3.9 28.3 11.7c4.333 4.367 7.467 9.233 9.4 14.6M174 8h-42v128m0-128H90m104 0v80h33.05c10.567-.233 19.634-4.15 27.2-11.75 2.9-2.867 5.267-5.967 7.1-9.3C264.45 61.283 266 54.967 266 48c0-11.033-3.917-20.467-11.75-28.3-7.566-7.567-16.633-11.467-27.2-11.7H194zm0 80v48m28-48l48 48M430 8v64h37c8.4-.233 15.617-3.35 21.65-9.35C494.883 56.383 498 48.833 498 40s-3.117-16.383-9.35-22.65c-6.067-6.033-13.334-9.15-21.8-9.35H430zm37 64h3.85c8.467.2 15.733 3.316 21.8 9.35C498.884 87.617 502 95.167 502 104c0 8.833-3.117 16.384-9.35 22.65-6.067 6.033-13.334 9.15-21.8 9.35H430V72m158 64h-66V8h66m-10 64h-56m-12 108c0 3.3-1.167 6.116-3.5 8.45-2.367 2.366-5.2 3.55-8.5 3.55s-6.133-1.184-8.5-3.55c-2.333-2.334-3.5-5.15-3.5-8.45 0-3.333 1.167-6.167 3.5-8.5 2.367-2.333 5.2-3.5 8.5-3.5s6.133 1.167 8.5 3.5c2.333 2.333 3.5 5.167 3.5 8.5zm-240-12v15.25c-.066 2.366-.95 4.4-2.65 6.1-1.767 1.767-3.883 2.65-6.35 2.65s-4.583-.884-6.35-2.65c-1.733-1.7-2.617-3.733-2.65-6.1V168M2 168v24m80-24v24h12m74-24v24h12m240-24v24m168-24v24l-20-24v24"/>
	<path fill="#000" fill-rule="evenodd" clip-rule="evenodd" d="M300.05 26.05C287.353 38.743 281.002 54.06 281 72c.002 17.94 6.353 33.257 19.05 45.95 12.693 12.697 28.01 19.048 45.95 19.05 17.974-.003 33.307-6.353 46-19.05 12.664-12.693 18.997-28.01 19-45.95-.003-17.94-6.336-33.257-19-45.95C379.307 13.353 363.974 7.002 346 7c-17.94.002-33.257 6.353-45.95 19.05zM274 144V0h144v144H274z"/>
</svg>