<svg id="图层_1" data-name="图层 1" xmlns="http://www.w3.org/2000/svg" viewBox="0 0 230.85 186.97"><defs><style>.cls-1{font-size:25.32px;fill:#fff;font-family:ITCAvantGardePro-XLt, ITC Avant Garde Gothic Pro;letter-spacing:0.2em;}.cls-2{letter-spacing:0.21em;}.cls-3{letter-spacing:0.19em;}.cls-4{letter-spacing:0.11em;}.cls-5{letter-spacing:0.13em;}.cls-6{letter-spacing:0.2em;}</style></defs><title>title</title><path d="M249.05,30.05A62.59,62.59,0,0,0,230,76a62.59,62.59,0,0,0,19.05,46A62.59,62.59,0,0,0,295,141q27,0,46-19A62.7,62.7,0,0,0,360,76a62.7,62.7,0,0,0-19-45.95q-19-19-46-19A62.59,62.59,0,0,0,249.05,30.05ZM223,148V4H367V148Z" transform="translate(-181.64 -4)"/><text class="cls-1" transform="translate(0 180.03)">ANKY<tspan class="cls-2" x="83.94" y="0">L</tspan><tspan class="cls-3" x="100.09" y="0">A</tspan><tspan class="cls-4" x="122.17" y="0">U</tspan><tspan class="cls-5" x="140.27" y="0">.</tspan><tspan class="cls-6" x="150.58" y="0">COM</tspan></text><path d="M296.2,109.8h-.07l.1,0Z" transform="translate(-181.64 -4)"/><path d="M306.69,68.56l-2-.21c1-2.73,2.68-5,2.05-8.07h-2.08c.82-2.62,2-4.83,1.59-7.85H303a11.16,11.16,0,0,0,.35-8c-.82.22-1.44.44-2.19.64.5-1.88.89-3.51.29-5.32l-2.52,1c-.21-3.57-.3-5-.48-6.46-.37.16-1.51.05-1.81.18L294.29,22a78.62,78.62,0,0,0-3.43,12.65l-1.68-.49c-.37,2.42-.72,4.71-1.08,7l-2.17-.9a12.76,12.76,0,0,0,.18,8.53l-3.33-1.37c-.72,2.76.2,5.16,1.19,7.72-1.1-.08-2-.11-3.13-.19-.22,3.06,1,5.53,2.74,8.14h-2.13c0,3,1.34,5.44,2.8,8.06H282.8c-.43,2,.41,3.56,1.15,5.21.16.35.35.93.19,1.1-.79.84-1.16-.14-.16,2.51.57,1.48,1.31,2.89,2,4.33-.34.66-.71,1.49-.46,2,.76,1.76,1.75,3.41,2.67,5.1.15.29.35.54.57.89-1,.37-1.42,1-.94,1.82.78,1.37,1.69,2.67,2.54,4a3.25,3.25,0,0,1,.45.84,9.85,9.85,0,0,0,.37,1.93c1,2.11,2.09,4.22,3.22,6.27.47.86,1.13,1.63,1.83,2.64h1.31a19.41,19.41,0,0,1,.8-2.07c.6-1.73,2.95-5.25,3-6.9a4.88,4.88,0,0,1,.17-2c.3-1,1.34-2.19,1.47-3.28.05-.46-.94-.16-.78-.58.72-1.87,1.5-3.71,2.31-5.7L302.86,89a19.08,19.08,0,0,0,2.67-7.25L304,81.36a9.34,9.34,0,0,1,.25-.9c.52-1.55,1.13-3.07,1.53-4.64a4.89,4.89,0,0,0,.22-2l-.91,0C305.76,72.15,307.16,70.66,306.69,68.56Z" transform="translate(-181.64 -4)"/><path d="M297.58,110l0-.05s0,.06,0,.09Z" transform="translate(-181.64 -4)"/><path d="M330.55,96.31l-.9-1.45c2.34-.7,4.83-.82,6.43-2.67L335,90.79c2.15-.75,4.32-1.11,6-2.84l-1.64-2.18A9.43,9.43,0,0,0,345,82c-.56-.44-1-.76-1.5-1.17a7.34,7.34,0,0,0,3.72-2.49l-1.91-1.2c2.29-1.94,3.23-2.73,4.1-3.57-.29-.17-.8-1-1-1.13l7.21-7.84a66.37,66.37,0,0,0-10.21,4.06c-.13-.33-.28-.72-.52-1.37l-5.25,2.8c-.13-.48-.28-1.1-.49-1.91a10.69,10.69,0,0,0-5.64,4.41c-.26-1-.49-1.91-.75-2.92-2.21.9-3.37,2.72-4.58,4.67-.5-.77-.89-1.46-1.39-2.24a10.25,10.25,0,0,0-4,5.89l-1.07-1.42c-2.1,1.54-3.15,3.76-4.16,6l-.73-1c-1.43.62-2.16,2-2.9,3.38-.15.28-.44.69-.64.67-1-.11-.48-.85-1.76,1.16-.71,1.12-1.27,2.32-1.91,3.49-.61.11-1.35.27-1.61.72-.79,1.4-1.41,2.9-2.08,4.36-.11.24-.19.5-.31.83-.73-.47-1.38-.45-1.7.28-.52,1.22-.93,2.48-1.4,3.72a2.81,2.81,0,0,1-.34.72,8.51,8.51,0,0,0-1.11,1.23c-.91,1.74-1.76,3.51-2.57,5.29a23.13,23.13,0,0,0-.84,2.55l.66.88a10.9,10.9,0,0,1,1.78-.49c1.46-.47,5-.65,6.12-1.47.79-.58.58-.58,1.44-.91s2.14-.2,2.94-.66c.34-.2-.36-.71,0-.81,1.62-.46,3.25-.87,5-1.32L314.9,104a15.86,15.86,0,0,0,6.21-1.86c-.2-.47-.35-.83-.53-1.24.28-.11.5-.22.73-.29,1.3-.43,2.63-.78,3.89-1.3a4,4,0,0,0,1.44-.86l-.47-.59C327.67,97.5,329.38,97.68,330.55,96.31Z" transform="translate(-181.64 -4)"/><path d="M295.4,109.81l0,0s0,0,0,.08Z" transform="translate(-181.64 -4)"/><path d="M261.57,98.4c.27-.52.53-1,.8-1.51-2.38-.54-4.88-.48-6.6-2.22l1-1.47c-2.2-.6-4.39-.81-6.2-2.42L252,88.49a9.49,9.49,0,0,1-5.81-3.4l1.42-1.27a7.42,7.42,0,0,1-3.89-2.23l1.83-1.33c-2.42-1.78-3.42-2.51-4.34-3.29.28-.19.73-1,.95-1.19l-7.73-7.32a64.35,64.35,0,0,1,10.47,3.35l.42-1.41c1.88.84,3.65,1.63,5.43,2.44.09-.5.2-1.12.35-1.94a10.66,10.66,0,0,1,5.93,4c.2-1,.36-1.94.55-3,2.27.75,3.55,2.49,4.9,4.35.44-.81.78-1.52,1.22-2.33a10.14,10.14,0,0,1,4.43,5.6l1-1.5c2.2,1.4,3.4,3.54,4.57,5.74l.65-1c1.48.52,2.31,1.9,3.13,3.17.17.27.49.66.68.62.95-.17.43-.88,1.84,1,.79,1.07,1.43,2.23,2.15,3.35.62.07,1.37.18,1.65.61.89,1.34,1.6,2.79,2.38,4.21.13.23.22.49.36.81.7-.52,1.35-.55,1.71.16.61,1.18,1.11,2.41,1.66,3.61a2.52,2.52,0,0,0,.39.7,8.62,8.62,0,0,1,1.19,1.14q1.53,2.52,2.93,5.11a23.72,23.72,0,0,1,1,2.49l-.6.92a10.84,10.84,0,0,0-1.8-.37c-1.49-.37-5-.31-6.21-1a4,4,0,0,0-1.51-.8c-.87-.27-2.14-.06-3-.46-.34-.17.32-.73,0-.81-1.65-.35-3.3-.64-5.07-1,.22-.54.34-.82.52-1.24a16,16,0,0,1-6.32-1.43c.16-.48.29-.85.44-1.28-.28-.09-.51-.17-.75-.23-1.32-.34-2.67-.6-4-1a3.86,3.86,0,0,1-1.5-.75c.06-.09.36-.54.43-.63C264.53,99.39,262.83,99.69,261.57,98.4Z" transform="translate(-181.64 -4)"/><path d="M299.06,110.78v0l0,.05Z" transform="translate(-181.64 -4)"/><path d="M318.63,120.08l.29-1c1.27.77,2.33,1.85,3.82,1.82l.2-1c1.22.66,2.26,1.5,3.73,1.56.11-.55.2-1,.32-1.62a5.75,5.75,0,0,0,4,1c0-.43-.06-.76-.08-1.15a4.5,4.5,0,0,0,2.64.67c-.09-.48-.16-.9-.24-1.35,1.81.24,2.55.35,3.28.4,0-.2.12-.77.09-.93l6.47.07a39.65,39.65,0,0,0-6-3l.41-.8-3.4-1.23.67-1a6.5,6.5,0,0,0-4.28-.76c.36-.53.66-1,1-1.52a6.2,6.2,0,0,0-4-.17c.15-.54.3-1,.45-1.54a6.2,6.2,0,0,0-4.3.58c.08-.42.14-.69.21-1.06a8.31,8.31,0,0,0-4.41.58c.05-.29.09-.5.14-.73a4.17,4.17,0,0,0-2.7.07c-.19,0-.5.08-.57,0-.34-.48.19-.56-1.24-.32-.79.13-1.56.37-2.35.56-.3-.24-.67-.51-1-.44-.95.21-1.88.54-2.81.83-.16,0-.3.12-.5.2-.09-.52-.36-.8-.82-.65-.76.26-1.5.59-2.25.88a1.53,1.53,0,0,1-.46.14,4.77,4.77,0,0,0-1,0c-1.16.29-2.3.63-3.44,1a12.87,12.87,0,0,0-1.48.66l-.13.65a6.23,6.23,0,0,1,.94.6c.81.47,2.32,2,3.15,2.17a2.29,2.29,0,0,1,1,.28c.49.25,1,.88,1.49,1.06.22.07.17-.46.36-.34.87.55,1.71,1.12,2.63,1.72.13-.33.19-.51.3-.77a9.52,9.52,0,0,0,3.36,2c.13-.28.23-.49.34-.74a4.34,4.34,0,0,1,.43.21c.72.41,1.42.87,2.17,1.22a2.41,2.41,0,0,0,1,.31c0-.07.07-.39.07-.46C316.92,119.26,317.53,120.11,318.63,120.08Z" transform="translate(-181.64 -4)"/><path d="M294.94,111.55v0Z" transform="translate(-181.64 -4)"/><path d="M272.06,107.67c0,.38,0,.73,0,1.11-1.53-.42-2.94-1.22-4.46-.76,0,.45.06.78.09,1.14-1.44-.34-2.76-.89-4.29-.53.05.6.09,1.13.14,1.77a6.18,6.18,0,0,0-4.38.16l.43,1.17a4.83,4.83,0,0,0-2.92.08l.64,1.32c-1.93.27-2.73.39-3.5.55.11.19.1.82.18,1l-6.68,1.82a43,43,0,0,0,7,1.3c0,.23-.09.49-.18.94L258,119c-.11.31-.23.71-.4,1.22a6.9,6.9,0,0,0,4.63-.47l-.6,1.87a6.54,6.54,0,0,0,4.14-1c0,.6,0,1.11,0,1.72a6.64,6.64,0,0,0,4.26-1.85c0,.45.06.75.09,1.16a9,9,0,0,0,4.38-1.89c0,.32.05.54.07.79a4.45,4.45,0,0,0,2.76-.86c.19-.1.49-.22.59-.14.49.39,0,.63,1.37,0,.78-.37,1.51-.84,2.26-1.26.38.15.84.32,1.14.16.92-.49,1.77-1.11,2.65-1.68a5.13,5.13,0,0,0,.46-.35c.24.51.6.73,1,.43.71-.48,1.38-1,2.06-1.56a2,2,0,0,1,.44-.28,4.89,4.89,0,0,0,1-.29c1.1-.64,2.19-1.32,3.26-2,.44-.3.83-.69,1.33-1.11l-.05-.71a7.63,7.63,0,0,1-1.15-.35c-1-.25-3-1.37-3.88-1.31a2.59,2.59,0,0,1-1.11,0c-.58-.12-1.24-.63-1.85-.65-.25,0,0,.51-.27.44-1.05-.3-2.09-.65-3.2-1,0,.38-.06.58-.09.88a10.39,10.39,0,0,0-4.06-1.13c0,.33-.09.58-.14.87l-.5-.1c-.86-.21-1.72-.48-2.59-.63a2.84,2.84,0,0,0-1.09,0c0,.07,0,.43.05.5C274.06,108,273.18,107.32,272.06,107.67Z" transform="translate(-181.64 -4)"/><path d="M296.22,112.32l0,0,0,0Z" transform="translate(-181.64 -4)"/><path d="M302.14,121.54l.4-.35c.33.67.5,1.42,1.15,1.8.14-.16.25-.27.37-.39a4.25,4.25,0,0,0,1.18,1.66l.57-.61a2.87,2.87,0,0,0,1.45,1.48l.27-.52a2.28,2.28,0,0,0,1,1l.27-.64c.71.59,1,.83,1.3,1.05,0-.1.25-.3.28-.38l2.76,1.76a21,21,0,0,0-1.78-2.87l.39-.23-1.13-1.43.55-.25a3.32,3.32,0,0,0-1.64-1.47l.84-.39a3.07,3.07,0,0,0-1.66-1.13c.21-.19.4-.34.61-.54a3.13,3.13,0,0,0-2-.9l.37-.4a4.27,4.27,0,0,0-2.05-.93l.25-.27a2.08,2.08,0,0,0-1.17-.7c-.1,0-.24-.09-.24-.15,0-.3.23-.2-.45-.47-.37-.16-.77-.26-1.15-.39-.07-.18-.16-.4-.31-.45-.46-.17-.95-.27-1.43-.4l-.27,0c.1-.25.07-.44-.17-.5-.4-.09-.8-.15-1.2-.22a1,1,0,0,1-.24-.07,2.8,2.8,0,0,0-.43-.27c-.58-.18-1.16-.34-1.74-.49a8.19,8.19,0,0,0-.82-.11l-.22.24a4.74,4.74,0,0,1,.24.51,9.93,9.93,0,0,0,.77,1.77c.22.21.21.15.36.39s.17.64.36.85.19-.14.24,0c.23.46.44.93.67,1.44l.33-.25a4.86,4.86,0,0,0,.9,1.77l.34-.22a1.67,1.67,0,0,1,.13.2c.2.37.38.75.6,1.11a1.56,1.56,0,0,0,.34.39l.16-.18C301.63,120.73,301.67,121.26,302.14,121.54Z" transform="translate(-181.64 -4)"/><path d="M296.69,112.85l0,0,0,0Z" transform="translate(-181.64 -4)"/><path d="M290.76,122.07l-.39-.35c-.33.67-.5,1.42-1.15,1.8l-.37-.39a4.18,4.18,0,0,1-1.18,1.66l-.57-.61a2.87,2.87,0,0,1-1.45,1.48l-.27-.52a2.28,2.28,0,0,1-.95,1l-.27-.64c-.71.59-1,.83-1.3,1.05,0-.1-.25-.3-.28-.37l-2.76,1.75a21,21,0,0,1,1.78-2.87l-.39-.23,1.13-1.43-.55-.25a3.28,3.28,0,0,1,1.64-1.47l-.84-.38a3.09,3.09,0,0,1,1.66-1.14c-.21-.19-.4-.34-.61-.54a3.13,3.13,0,0,1,2-.9l-.37-.4a4.27,4.27,0,0,1,2.05-.93l-.26-.27a2.14,2.14,0,0,1,1.18-.7c.1,0,.24-.09.24-.15,0-.3-.23-.2.45-.47.37-.16.77-.26,1.15-.39.07-.18.16-.4.31-.45.46-.16.95-.27,1.43-.39l.27,0c-.11-.25-.07-.44.17-.5.4-.09.8-.15,1.2-.22a1,1,0,0,0,.24-.07,2.8,2.8,0,0,1,.43-.27c.57-.18,1.16-.34,1.74-.49a8.19,8.19,0,0,1,.82-.11l.22.24c-.1.15-.16.36-.24.51a9.93,9.93,0,0,1-.77,1.77c-.22.21-.21.15-.36.39s-.17.64-.36.86-.19-.15-.24-.05c-.23.46-.44.94-.67,1.44l-.33-.25a5,5,0,0,1-.9,1.78l-.35-.23c0,.08-.09.14-.12.2-.2.37-.38.76-.6,1.11a1.56,1.56,0,0,1-.34.39l-.16-.18C291.28,121.26,291.24,121.79,290.76,122.07Z" transform="translate(-181.64 -4)"/><path d="M295.55,109.72s1.44,13.81,0,20.28a17.83,17.83,0,0,0,1.95-3.39c.76-1.79.27-16.34.27-16.34Z" transform="translate(-181.64 -4)"/><rect x="109.13" y="101.62" width="11.48" height="9.07"/></svg>